<?xml version="1.0" standalone="no"?>
<!DOCTYPE svg PUBLIC "-//W3C//DTD SVG 20010904//EN"
 "http://www.w3.org/TR/2001/REC-SVG-20010904/DTD/svg10.dtd">
<svg version="1.0" xmlns="http://www.w3.org/2000/svg"
 width="547.000000pt" height="547.000000pt" viewBox="0 0 547.000000 547.000000"
 preserveAspectRatio="xMidYMid meet">
<metadata>
Created by potrace 1.14, written by Peter Selinger 2001-2017
</metadata>
<g transform="translate(0.000000,547.000000) scale(0.100000,-0.100000)"
fill="#000000" stroke="none">
<path d="M2377 5384 c-9 -9 -118 -18 -197 -16 -91 3 -155 -16 -233 -67 -79
-51 -235 -230 -276 -316 -11 -22 -29 -101 -41 -175 -33 -220 -51 -308 -76
-388 -13 -41 -27 -94 -31 -116 -9 -51 -9 -183 0 -216 4 -14 10 -40 15 -59 4
-19 14 -36 22 -39 12 -3 12 -2 2 6 -11 8 -11 10 0 15 9 3 14 -2 15 -14 1 -10
-3 -19 -8 -19 -15 0 53 -120 81 -144 54 -45 50 -48 -62 -41 -56 3 -112 7 -122
9 -30 4 -150 -23 -226 -51 -8 -3 -22 -7 -30 -8 -30 -3 -135 -39 -141 -48 -3
-5 -9 -8 -13 -8 -21 4 -69 -36 -87 -72 -12 -23 -21 -44 -21 -47 1 -3 -3 -21
-8 -40 -6 -19 -10 -50 -10 -69 0 -35 44 -126 85 -176 29 -35 30 -37 74 -95 19
-25 39 -50 45 -55 26 -25 86 -143 91 -180 2 -20 -17 -82 -50 -155 -33 -75 -46
-106 -50 -125 -2 -5 -10 -35 -18 -65 -23 -82 -15 -123 42 -210 19 -30 41 -61
48 -68 7 -7 13 -18 13 -24 0 -18 50 -78 64 -78 8 0 19 -7 26 -15 7 -8 16 -13
20 -10 5 3 10 0 12 -6 2 -6 18 -13 36 -15 33 -4 69 -35 94 -84 7 -14 23 -33
36 -44 20 -16 23 -24 17 -64 -3 -25 -8 -48 -10 -52 -10 -16 -13 -60 -4 -60 6
0 7 -5 4 -10 -3 -6 -2 -10 3 -10 5 0 13 -8 16 -17 6 -18 13 -29 58 -99 30 -46
79 -284 82 -391 0 -34 4 -64 7 -68 4 -3 0 -27 -8 -53 -9 -26 -17 -81 -18 -122
-2 -41 -3 -78 -4 -82 -1 -3 -11 -4 -23 0 -14 3 -19 2 -14 -6 15 -24 -22 -11
-38 12 -11 18 -22 24 -38 21 -29 -6 -58 3 -55 17 1 6 -6 12 -16 13 -13 3 -16
-1 -12 -15 3 -10 -3 -33 -13 -52 -15 -28 -16 -37 -5 -58 7 -14 11 -35 8 -48
-2 -12 0 -20 6 -17 5 4 9 2 9 -3 0 -14 37 -3 51 14 6 8 21 14 32 14 19 0 19
-1 2 -20 -10 -11 -21 -17 -25 -15 -8 5 -41 -39 -39 -51 1 -8 -31 -28 -46 -29
-14 0 -19 -45 -6 -58 7 -7 16 -5 30 7 17 15 20 15 28 3 13 -24 46 -25 58 -1 5
11 16 19 24 16 9 -3 11 2 6 17 -8 27 3 27 31 0 13 -12 28 -18 35 -14 9 6 7 12
-7 22 -19 14 -19 14 1 26 11 6 25 12 30 12 6 1 9 6 8 13 -2 7 4 12 12 12 8 0
15 5 15 12 0 8 3 8 9 3 5 -6 11 -32 12 -60 3 -50 13 -64 62 -81 9 -3 17 -10
17 -15 0 -5 9 -9 20 -9 11 0 20 -5 20 -11 0 -5 4 -8 9 -5 15 9 30 -18 33 -57
1 -20 6 -37 11 -37 14 0 46 -43 47 -63 0 -14 5 -17 20 -12 13 4 20 2 18 -5 -2
-7 5 -14 15 -15 9 -2 15 1 11 6 -3 5 1 9 10 9 8 0 17 6 19 13 4 9 6 9 6 0 1
-7 10 -13 21 -13 11 0 20 -4 20 -10 0 -5 7 -10 15 -10 9 0 24 -14 33 -30 11
-20 22 -28 32 -24 8 4 21 7 28 7 6 0 12 4 12 9 0 13 21 33 45 42 16 6 18 5 8
-5 -7 -7 -13 -21 -13 -31 0 -10 -6 -21 -14 -24 -24 -9 -6 -33 30 -40 31 -6 33
-8 17 -19 -16 -12 -11 -13 33 -12 36 0 57 -4 69 -16 9 -10 21 -15 26 -12 5 4
9 -3 9 -14 0 -18 5 -20 35 -16 22 2 35 0 35 -7 0 -9 3 -9 11 -1 6 6 19 8 30 6
18 -5 23 -15 20 -40 -4 -27 21 -53 62 -64 68 -18 275 1 322 29 6 4 16 7 24 9
16 2 70 62 72 78 0 6 2 18 5 27 2 10 5 25 7 33 4 20 14 28 39 32 12 2 44 10
72 17 28 8 80 17 116 21 133 13 160 22 155 55 -12 73 -9 84 26 119 17 17 27
31 23 31 -4 0 5 13 20 29 23 24 36 29 74 30 29 0 76 12 119 30 40 16 85 29
100 28 24 -2 27 -7 28 -37 1 -33 3 -35 35 -33 19 1 39 8 45 15 6 9 25 14 47
13 21 -2 46 4 55 11 17 13 17 15 1 24 -23 14 -12 44 23 57 24 9 29 9 29 -4 0
-13 2 -13 15 1 8 8 15 22 15 31 0 17 -29 75 -42 85 -4 3 -9 15 -11 25 -4 22
-14 49 -28 80 -5 11 -11 29 -12 40 -2 11 -7 27 -10 35 -4 8 -18 48 -33 89 -14
40 -36 92 -49 115 -12 22 -26 68 -30 101 -3 32 -8 63 -11 66 -2 4 0 10 6 14 6
4 8 10 6 14 -3 4 -7 18 -10 32 -3 13 -10 42 -16 64 -14 57 -22 145 -13 145 4
0 23 -33 41 -74 18 -41 41 -82 51 -93 10 -10 20 -24 22 -30 6 -15 61 -84 82
-102 59 -51 73 -61 86 -61 8 0 22 -7 32 -16 10 -9 42 -19 71 -23 43 -5 52 -10
50 -24 -2 -9 1 -17 5 -18 4 0 18 -2 30 -5 18 -3 21 0 17 20 -3 19 3 27 31 40
19 9 37 21 40 26 11 18 93 255 115 333 54 194 56 270 10 352 -10 17 -29 50
-44 75 -62 106 -97 189 -87 208 5 10 6 24 1 31 -10 17 4 60 47 136 19 33 39
72 44 88 6 15 15 27 20 27 5 0 8 3 7 8 -1 4 6 24 15 46 9 21 17 42 17 45 0 4
11 31 25 60 36 74 37 103 6 154 -15 23 -42 74 -61 112 -19 39 -49 93 -68 120
-18 28 -35 61 -39 75 -11 49 -40 93 -111 169 -36 40 -54 77 -67 141 -4 21 -18
54 -50 124 -49 108 -55 133 -54 251 0 104 -4 133 -32 235 -6 19 -11 42 -12 50
-2 8 -5 20 -8 25 -4 6 -9 22 -13 37 -8 33 -52 80 -135 142 -103 76 -153 102
-198 105 -6 1 -27 15 -45 31 -18 17 -38 30 -45 30 -7 0 -13 4 -13 8 0 10 -94
36 -130 37 -35 1 -173 -25 -185 -35 -16 -12 -69 -21 -81 -12 -6 4 -17 36 -25
72 -7 36 -14 67 -15 70 -1 7 -22 59 -41 105 -24 54 -73 138 -87 147 -6 4 -7 8
-3 8 15 0 -73 110 -88 110 -9 0 -89 62 -93 72 -2 5 -10 8 -18 8 -8 0 -14 5
-14 10 0 6 -12 16 -27 22 -26 11 -96 62 -125 92 -26 25 -64 45 -98 51 -41 8
-177 14 -183 9z m-863 -4389 c-4 -8 -8 -15 -10 -15 -2 0 -4 7 -4 15 0 8 4 15
10 15 5 0 7 -7 4 -15z m106 -25 c0 -13 -5 -18 -14 -14 -8 3 -12 12 -9 20 8 21
23 17 23 -6z m-144 -28 c-22 -5 -30 3 -21 18 5 8 11 7 22 -2 15 -12 14 -13 -1
-16z m159 -83 c-7 -21 -8 -21 -18 -4 -7 14 -7 20 1 23 7 2 9 9 6 15 -5 9 -4 9
6 1 7 -8 9 -21 5 -35z m2303 -74 c-3 -3 -9 2 -12 12 -6 14 -5 15 5 6 7 -7 10
-15 7 -18z m-87 -37 c-12 -33 -39 -36 -37 -4 1 20 6 26 23 26 19 0 21 -3 14
-22z"/>
<path d="M1151 1261 c-6 -10 -7 -21 -4 -25 9 -8 33 14 33 30 0 20 -18 17 -29
-5z"/>
<path d="M1197 1267 c-3 -8 1 -14 9 -14 16 0 19 13 5 21 -5 3 -11 0 -14 -7z"/>
<path d="M4269 1275 c-1 -3 -2 -13 -3 -22 -1 -10 -7 -27 -13 -39 -11 -18 -9
-23 13 -34 21 -12 26 -11 37 4 7 9 11 34 9 56 -3 31 -8 40 -23 40 -10 0 -20
-2 -20 -5z"/>
<path d="M1068 1133 c7 -3 16 -2 19 1 4 3 -2 6 -13 5 -11 0 -14 -3 -6 -6z"/>
<path d="M1097 1123 c-4 -3 -7 -13 -7 -21 0 -8 -6 -20 -14 -26 -9 -7 -13 -21
-9 -38 6 -29 31 -44 47 -28 12 12 46 14 46 3 0 -5 -9 -22 -19 -39 -12 -20 -16
-36 -10 -45 13 -20 11 -40 -3 -38 -29 3 -40 -2 -34 -16 3 -9 0 -15 -9 -15 -18
0 -20 -27 -3 -32 18 -6 1 -26 -37 -44 -19 -9 -35 -21 -35 -26 0 -5 -4 -6 -10
-3 -5 3 -10 -1 -10 -9 0 -9 5 -16 10 -16 6 0 10 -9 10 -19 0 -11 9 -23 20 -26
11 -4 18 -11 15 -16 -3 -5 1 -6 9 -3 17 7 22 34 6 34 -6 0 -5 9 1 24 8 18 19
24 38 23 22 -2 26 2 26 26 1 15 -3 27 -7 27 -4 0 -8 9 -8 20 0 11 -5 20 -12
20 -17 0 7 23 26 26 43 6 94 70 81 101 -10 23 -12 29 -14 49 0 8 -5 13 -10 10
-10 -7 -24 41 -16 54 11 17 -15 50 -39 50 -12 0 -26 -3 -29 -7z"/>
<path d="M1381 1054 c-10 -12 -10 -19 -2 -27 8 -8 11 -7 11 6 0 9 7 17 16 17
8 0 12 5 9 10 -8 14 -18 12 -34 -6z"/>
<path d="M4089 1038 c5 -13 10 -27 11 -33 1 -5 5 -16 8 -24 3 -8 0 -17 -7 -19
-9 -3 -6 -11 9 -27 18 -19 20 -27 11 -44 -7 -11 -15 -20 -19 -20 -27 4 -33 -2
-17 -18 13 -12 19 -13 25 -4 4 7 10 12 14 12 21 -3 27 1 23 14 -4 8 -2 17 3
20 11 7 2 34 -17 53 -19 19 -16 32 7 32 11 0 20 5 20 10 0 6 -6 10 -14 10 -17
0 -30 30 -13 30 12 1 -32 29 -45 30 -4 0 -4 -10 1 -22z"/>
<path d="M4436 1044 c-9 -9 -14 -19 -11 -22 3 -3 13 2 22 11 9 9 14 19 11 22
-3 3 -13 -2 -22 -11z"/>
<path d="M4268 973 c-10 -2 -18 -9 -18 -14 0 -6 4 -8 9 -5 5 4 11 1 13 -6 3
-7 7 -2 10 10 4 12 5 21 5 21 -1 -1 -10 -3 -19 -6z"/>
<path d="M4313 944 c-17 -17 -16 -24 1 -24 19 0 27 13 18 27 -5 7 -11 7 -19
-3z"/>
<path d="M4786 887 c3 -10 9 -15 12 -12 3 3 0 11 -7 18 -10 9 -11 8 -5 -6z"/>
<path d="M4262 868 c6 -18 52 -40 56 -27 2 5 -2 16 -8 24 -15 18 -53 20 -48 3z"/>
<path d="M4649 877 c-12 -34 0 -48 20 -23 9 10 8 15 -4 20 -8 3 -15 4 -16 3z"/>
<path d="M1369 828 c-7 -24 -5 -38 7 -38 8 0 14 9 14 20 0 11 -4 20 -10 20 -5
0 -10 -1 -11 -2z"/>
<path d="M4783 810 c-8 -12 -9 -21 -3 -25 15 -9 30 4 30 26 0 24 -12 24 -27
-1z"/>
<path d="M4830 822 c0 -4 9 -8 20 -9 11 -1 18 2 15 8 -7 11 -35 12 -35 1z"/>
<path d="M856 764 c-35 -35 -36 -38 -20 -55 22 -24 68 -20 73 7 2 10 7 21 11
24 8 5 13 26 11 48 -2 23 -39 12 -75 -24z"/>
<path d="M956 751 c-4 -7 -5 -15 -2 -18 9 -9 19 4 14 18 -4 11 -6 11 -12 0z"/>
<path d="M1121 739 c-20 -17 -21 -20 -6 -25 20 -8 47 16 37 33 -5 8 -14 6 -31
-8z"/>
<path d="M786 698 c3 -4 9 -8 15 -8 5 0 9 4 9 8 0 5 -7 9 -15 9 -8 0 -12 -4
-9 -9z"/>
<path d="M1420 675 c0 -8 4 -15 10 -15 5 0 7 7 4 15 -4 8 -8 15 -10 15 -2 0
-4 -7 -4 -15z"/>
<path d="M2047 465 c-21 -6 -35 -13 -32 -16 3 -3 -14 -4 -38 -2 -45 5 -82 -16
-74 -40 2 -6 -5 -19 -16 -30 -18 -18 -18 -19 3 -37 15 -13 20 -25 15 -39 -7
-24 25 -45 55 -36 24 8 26 21 5 29 -20 7 -19 36 1 36 12 0 15 6 10 23 -5 23
-4 24 53 22 71 -3 91 6 69 29 -9 8 -19 12 -22 8 -4 -3 -4 1 0 11 3 9 10 17 14
17 4 0 11 7 14 16 3 8 2 13 -3 9 -5 -3 -11 -1 -13 3 -1 4 -20 3 -41 -3z"/>
</g>
</svg>
